<?xml version="1.0" encoding="UTF-8" standalone="no"?>
<svg xmlns="http://www.w3.org/2000/svg" xmlns:xlink="http://www.w3.org/1999/xlink" width="80.339mm" height="92.677mm" viewBox="205.307632 -326.267273 80.338913 92.676682">
    <path transform="matrix(1,0,0,-1,0,0)" style="stroke:none;fill:#000000;fill-rule:evenodd" d="M257.948181,233.590591L257.881531,241.065414L257.81485,248.540253L259.177734,249.118317C261.652283,250.167877,268.100464,254.371933,269.052124,255.556152L269.961731,256.688019L277.804138,256.688019L285.646545,256.688019L285.646545,267.019897L285.646545,277.351776L270.815063,277.277466L255.983551,277.203156L255.616425,275.194672C255.111038,272.429688,253.927475,269.290985,252.996613,268.247192C251.647919,266.36145,248.372375,265.271484,247.063873,265.218994C245.80925,265.168701,243.787109,265.411682,241.827728,267.156433C241.030075,267.86676,240.114517,270.010315,240.780823,272.889801C241.041061,273.684052,241.514938,274.721252,241.833923,275.194672C242.152893,275.668091,245.2229,278.895996,248.656158,282.367798C254.508728,288.286011,254.997742,288.863068,256.488464,291.610016C258.806641,295.881622,259.029999,297.724335,259.176483,313.786041L259.290314,326.267273L238.755966,326.267242L238.81691,315.593872C238.872711,305.816559,238.827744,304.661011,238.281311,301.829407C238.191833,301.365753,238.118912,300.167664,237.439545,298.813293C236.766922,297.472351,235.899902,296.780518,235.584915,296.435028C234.429977,295.168182,231.009735,291.420258,227.98436,288.106293C221.855515,281.392792,220.999817,280.296143,220.530609,278.553619L220.205597,277.346619L212.756622,277.346619L205.307632,277.346619L205.307632,267.017334L205.307632,256.688019L214.75708,256.688019L224.206528,256.688019L226.018875,254.655457C227.647736,252.828674,228.194336,252.442245,231.417786,250.838684C233.390381,249.857376,235.534073,248.843948,236.181534,248.586609C237.309509,248.13829,237.366364,248.054977,237.541931,246.593155C237.642685,245.754089,237.726532,242.48526,237.728241,239.329086L237.731369,233.590591L257.948181,233.590591z"/>
</svg>
